Coordinates
version=1
nRows=7
nColumns=42
inDegrees=yes

Units are S.I. units (second, meters, Newtons, ...)
If the header above contains a line with 'inDegrees', this indicates whether rotational values are in degrees (yes) or radians (no).

endheader
time	pelvis_tilt	pelvis_list	pelvis_rotation	pelvis_tx	pelvis_ty	pelvis_tz	hip_flexion_r	hip_adduction_r	hip_rotation_r	knee_angle_r	knee_adduction_r	knee_angle_r_beta	ankle_angle_r	subtalar_angle_r	mtp_angle_r	hip_flexion_l	hip_adduction_l	hip_rotation_l	knee_angle_l	knee_adduction_l	knee_angle_l_beta	ankle_angle_l	subtalar_angle_l	mtp_angle_l	lumbar_extension	lumbar_bending	lumbar_rotation	arm_flex_r	arm_add_r	arm_rot_r	elbow_flex_r	pro_sup_r	wrist_flex_r	wrist_dev_r	arm_flex_l	arm_add_l	arm_rot_l	elbow_flex_l	pro_sup_l	wrist_flex_l	wrist_dev_l
      1.96000000	      0.33878410	      0.80162821	     -7.55061698	      0.11049719	      0.86509030	     -0.17193529	    -20.08890572	     -8.66045578	      0.50711759	     16.16106479	     14.23577882	      0.28206379	     11.48218623	      6.30005663	     -7.50593071	     23.00254799	     -7.06415749	     -6.02881908	     12.38971069	     14.73249304	      0.21624124	     -3.64662875	     -5.89089194	     -7.50593071	    -12.77287302	     -2.04288503	      4.87026651	     -3.86456598	    -13.83250411	     -4.37321847	     19.47310199	     90.00000001	      0.00000000	      0.00000000	    -12.97527355	     -7.48532250	      3.42523199	     20.28631461	     90.00000001	      0.00000000	      0.00000000
      1.97000000	      0.55024466	      0.93640896	     -7.38745835	      0.12274743	      0.86604464	     -0.17320679	    -19.92614370	     -9.26214608	      0.52371395	     18.29518498	     14.70364034	      0.31931122	      9.39249927	      6.09415747	     -7.50582453	     22.76545683	     -6.78814548	     -5.29089638	     13.63990206	     15.00599328	      0.23806120	     -4.38387687	     -5.95523347	     -7.50582453	    -13.11703201	     -2.29017257	      4.62919960	     -4.08415307	    -13.80387002	     -4.47036033	     19.34342652	     90.00000001	      0.00000000	      0.00000000	    -12.82768501	     -7.66615565	      3.36510357	     20.30039057	     90.00000001	      0.00000000	      0.00000000
      1.98000000	      0.76338584	      1.07314404	     -7.17849820	      0.13498897	      0.86723298	     -0.17450176	    -19.56752910	     -9.82196523	      0.33955594	     20.77693396	     15.01913678	      0.36262591	      7.00193012	      5.90480390	     -7.50571692	     22.46036780	     -6.51943342	     -4.64702652	     14.81980414	     15.31744337	      0.25865438	     -4.75112236	     -6.08690874	     -7.50571692	    -13.45749670	     -2.53047143	      4.37529423	     -4.29417705	    -13.76377337	     -4.57219683	     19.18384326	     90.00000001	      0.00000000	      0.00000000	    -12.64090804	     -7.88080704	      3.29727760	     20.30582612	     90.00000001	      0.00000000	      0.00000000
      1.99000000	      0.48986630	      1.33012724	     -6.93053202	      0.14676970	      0.86782149	     -0.17586742	    -17.98373092	    -10.50082818	     -1.41162991	     24.85618121	     14.75153212	      0.43382220	      5.24798796	      8.34601704	     -7.50517331	     22.74342528	     -6.15451184	     -3.94042406	     16.02631889	     15.59522973	      0.27971203	     -4.95296732	     -6.63744076	     -7.50517331	    -13.26192731	     -2.82890475	      4.09753210	     -4.51773944	    -13.66007610	     -4.87131581	     18.92571599	     90.00000001	      0.00000000	      0.00000000	    -12.45329797	     -8.11234230	      3.14090837	     20.26487944	     90.00000001	      0.00000000	      0.00000000
      2.00000000	      0.88048575	      1.38442977	     -6.69235908	      0.15895416	      0.86971935	     -0.17716913	    -17.55749070	    -11.00141160	     -1.40454226	     27.55202917	     15.01413341	      0.48087362	      2.32144208	      7.77207506	     -7.50510374	     21.95093519	     -5.94451745	     -3.41342534	     16.75458689	     15.93318167	      0.29242271	     -4.49265881	     -6.68366220	     -7.50510374	    -13.83239326	     -2.96604997	      3.81172017	     -4.69858672	    -13.64664906	     -4.89630688	     18.77692304	     90.00000001	      0.00000000	      0.00000000	    -12.23565532	     -8.33764509	      3.12434990	     20.33213190	     90.00000001	      0.00000000	      0.00000000
      2.01000000	      1.01484614	      1.46650391	     -6.45280140	      0.17084441	      0.87137177	     -0.17839989	    -16.50592239	    -11.51633400	     -1.59839161	     30.80356948	     15.14191705	      0.53762371	     -0.45951425	      7.19390285	     -7.50501932	     21.40845663	     -5.72997810	     -2.99926602	     17.44024346	     16.21755768	      0.30438967	     -3.80040633	     -6.53838606	     -7.50501932	    -14.11375292	     -3.10261837	      3.54343869	     -4.90173977	    -13.59539866	     -4.92457108	     18.62019387	     90.00000001	      0.00000000	      0.00000000	    -12.02173065	     -8.58164669	      3.09194658	     20.39168920	     90.00000001	      0.00000000	      0.00000000
      2.02000000	      1.09010980	      1.50758288	     -6.20581277	      0.18248390	      0.87307482	     -0.17972855	    -15.20706990	    -11.97103436	     -1.68858458	     34.17978636	     15.19508606	      0.59654981	     -2.95228268	      6.66218966	     -7.50494088	     20.86294463	     -5.55569680	     -2.70638710	     18.01693685	     16.48115452	      0.31445487	     -2.84024109	     -6.27231403	     -7.50494088	    -14.35653366	     -3.15220183	      3.27814272	     -5.08205823	    -13.58554065	     -4.94975223	     18.46779822	     90.00000001	      0.00000000	      0.00000000	    -11.78270414	     -8.79350253	      3.06688318	     20.49018066	     90.00000001	      0.00000000	      0.00000000
